<svg xmlns="http://www.w3.org/2000/svg" width="1400" height="760" viewBox="0 0 1400 760" role="img" aria-labelledby="title desc">
  <title id="title">Facundo Solis voxel game world</title>
  <desc id="desc">A Minecraft-inspired one-screen profile world with player, hotbar, blocks, portals and skill areas.</desc>
  <defs>
    <linearGradient id="sky" x1="0" y1="0" x2="0" y2="1">
      <stop offset="0" stop-color="#6fb7ff"/>
      <stop offset="0.55" stop-color="#b7e5ff"/>
      <stop offset="1" stop-color="#eaf8ff"/>
    </linearGradient>
    <linearGradient id="grass" x1="0" y1="0" x2="0" y2="1">
      <stop offset="0" stop-color="#46c65a"/>
      <stop offset="1" stop-color="#1f8f3c"/>
    </linearGradient>
    <linearGradient id="dirt" x1="0" y1="0" x2="0" y2="1">
      <stop offset="0" stop-color="#9a6335"/>
      <stop offset="1" stop-color="#6b3f24"/>
    </linearGradient>
    <filter id="shadow" x="-20%" y="-20%" width="140%" height="140%">
      <feDropShadow dx="0" dy="10" stdDeviation="0" flood-color="#000000" flood-opacity=".22"/>
    </filter>
    <style>
      .pixel { shape-rendering: crispEdges; }
      .mono { font-family: "Courier New", monospace; font-weight: 800; letter-spacing: 0; }
      .small { font-family: "Courier New", monospace; font-weight: 700; letter-spacing: 0; }
    </style>
  </defs>

  <rect width="1400" height="760" fill="url(#sky)"/>
  <rect x="0" y="0" width="1400" height="760" fill="#ffffff" opacity=".08"/>

  <g class="pixel" opacity=".95">
    <rect x="112" y="88" width="64" height="64" fill="#fff6b0"/>
    <rect x="128" y="88" width="16" height="64" fill="#ffe46b"/>
    <rect x="112" y="104" width="64" height="16" fill="#ffe46b"/>
    <rect x="128" y="104" width="32" height="32" fill="#fff099"/>
  </g>

  <g class="pixel" opacity=".55">
    <rect x="940" y="80" width="220" height="34" fill="#ffffff"/>
    <rect x="980" y="48" width="112" height="32" fill="#ffffff"/>
    <rect x="1048" y="114" width="86" height="32" fill="#ffffff"/>
    <rect x="214" y="172" width="182" height="32" fill="#ffffff"/>
    <rect x="260" y="140" width="96" height="32" fill="#ffffff"/>
  </g>

  <g class="pixel">
    <rect x="0" y="488" width="1400" height="96" fill="url(#grass)"/>
    <rect x="0" y="584" width="1400" height="176" fill="url(#dirt)"/>
    <g opacity=".28">
      <rect x="44" y="612" width="54" height="38" fill="#c1844a"/>
      <rect x="152" y="672" width="54" height="38" fill="#57331f"/>
      <rect x="306" y="618" width="54" height="38" fill="#c1844a"/>
      <rect x="486" y="694" width="54" height="38" fill="#57331f"/>
      <rect x="692" y="622" width="54" height="38" fill="#c1844a"/>
      <rect x="912" y="684" width="54" height="38" fill="#57331f"/>
      <rect x="1138" y="622" width="54" height="38" fill="#c1844a"/>
      <rect x="1278" y="688" width="54" height="38" fill="#57331f"/>
    </g>
  </g>

  <g filter="url(#shadow)">
    <rect x="90" y="72" width="760" height="190" fill="#1e2721"/>
    <rect x="102" y="84" width="736" height="166" fill="#26372c"/>
    <rect x="102" y="84" width="736" height="18" fill="#38f8b4"/>
    <text x="132" y="140" fill="#f5c542" class="mono" font-size="38">FACUNDO SOLIS</text>
    <text x="134" y="180" fill="#ecf4df" class="mono" font-size="25">FULL-STACK AI ENGINEER</text>
    <text x="134" y="218" fill="#bfe9d0" class="small" font-size="22">SAAS  /  AI  /  WEB  /  MOBILE  /  AUTOMATION</text>
  </g>

  <g class="pixel" filter="url(#shadow)">
    <rect x="1040" y="268" width="72" height="72" fill="#2b1b66"/>
    <rect x="1112" y="268" width="72" height="72" fill="#5f2ddb"/>
    <rect x="1112" y="340" width="72" height="72" fill="#2b1b66"/>
    <rect x="1040" y="340" width="72" height="72" fill="#8d4cff"/>
    <rect x="1056" y="284" width="112" height="112" fill="#11172b"/>
    <rect x="1074" y="302" width="76" height="76" fill="#7cf7ff"/>
    <text x="1109" y="440" text-anchor="middle" fill="#1e2721" class="mono" font-size="22">AI PORTAL</text>
  </g>

  <g class="pixel" filter="url(#shadow)">
    <rect x="188" y="350" width="124" height="126" fill="#286b3a"/>
    <rect x="214" y="294" width="72" height="72" fill="#f0c49c"/>
    <rect x="228" y="320" width="14" height="14" fill="#232323"/>
    <rect x="258" y="320" width="14" height="14" fill="#232323"/>
    <rect x="228" y="420" width="28" height="68" fill="#243d7a"/>
    <rect x="256" y="420" width="28" height="68" fill="#263f82"/>
    <rect x="174" y="374" width="32" height="90" fill="#f0c49c"/>
    <rect x="294" y="374" width="32" height="90" fill="#f0c49c"/>
    <rect x="216" y="290" width="68" height="22" fill="#3b2518"/>
    <text x="250" y="536" text-anchor="middle" fill="#1e2721" class="mono" font-size="22">PLAYER 01</text>
  </g>

  <g class="pixel" filter="url(#shadow)">
    <rect x="428" y="382" width="104" height="86" fill="#9b5b2d"/>
    <rect x="428" y="382" width="104" height="22" fill="#d48a3c"/>
    <rect x="468" y="412" width="24" height="28" fill="#f5c542"/>
    <rect x="424" y="378" width="112" height="8" fill="#5e351f"/>
    <text x="480" y="516" text-anchor="middle" fill="#1e2721" class="mono" font-size="22">SKILLS</text>
  </g>

  <g class="pixel" filter="url(#shadow)">
    <rect x="610" y="348" width="150" height="130" fill="#6b4428"/>
    <rect x="622" y="360" width="126" height="106" fill="#a66d3d"/>
    <rect x="646" y="328" width="80" height="36" fill="#7e5534"/>
    <rect x="646" y="386" width="32" height="32" fill="#3a2418"/>
    <rect x="694" y="386" width="32" height="32" fill="#3a2418"/>
    <rect x="646" y="428" width="80" height="18" fill="#3a2418"/>
    <text x="685" y="516" text-anchor="middle" fill="#1e2721" class="mono" font-size="22">CRAFT</text>
  </g>

  <g class="pixel" filter="url(#shadow)">
    <rect x="838" y="398" width="128" height="72" fill="#596168"/>
    <rect x="854" y="374" width="96" height="34" fill="#76818a"/>
    <rect x="866" y="412" width="22" height="22" fill="#38f8b4"/>
    <rect x="904" y="412" width="22" height="22" fill="#f5c542"/>
    <rect x="942" y="412" width="12" height="44" fill="#2d3439"/>
    <text x="902" y="516" text-anchor="middle" fill="#1e2721" class="mono" font-size="22">SAAS</text>
  </g>

  <g class="pixel">
    <rect x="264" y="548" width="872" height="84" fill="#1e2721" filter="url(#shadow)"/>
    <rect x="280" y="564" width="76" height="52" fill="#314735" stroke="#ecf4df" stroke-width="4"/>
    <rect x="370" y="564" width="76" height="52" fill="#314735" stroke="#ecf4df" stroke-width="4"/>
    <rect x="460" y="564" width="76" height="52" fill="#314735" stroke="#ecf4df" stroke-width="4"/>
    <rect x="550" y="564" width="76" height="52" fill="#314735" stroke="#ecf4df" stroke-width="4"/>
    <rect x="640" y="564" width="76" height="52" fill="#314735" stroke="#ecf4df" stroke-width="4"/>
    <rect x="730" y="564" width="76" height="52" fill="#314735" stroke="#ecf4df" stroke-width="4"/>
    <rect x="820" y="564" width="76" height="52" fill="#314735" stroke="#ecf4df" stroke-width="4"/>
    <rect x="910" y="564" width="76" height="52" fill="#314735" stroke="#ecf4df" stroke-width="4"/>
    <rect x="1000" y="564" width="76" height="52" fill="#314735" stroke="#ecf4df" stroke-width="4"/>
    <text x="318" y="598" text-anchor="middle" fill="#38f8b4" class="mono" font-size="17">AI</text>
    <text x="408" y="598" text-anchor="middle" fill="#f5c542" class="mono" font-size="17">WEB</text>
    <text x="498" y="598" text-anchor="middle" fill="#ff7a59" class="mono" font-size="17">API</text>
    <text x="588" y="598" text-anchor="middle" fill="#7cf7ff" class="mono" font-size="17">DB</text>
    <text x="678" y="598" text-anchor="middle" fill="#b9f27d" class="mono" font-size="17">OPS</text>
    <text x="768" y="598" text-anchor="middle" fill="#f7a8ff" class="mono" font-size="17">APP</text>
    <text x="858" y="598" text-anchor="middle" fill="#d6e4ff" class="mono" font-size="17">UX</text>
    <text x="948" y="598" text-anchor="middle" fill="#ffd66b" class="mono" font-size="17">SaaS</text>
    <text x="1038" y="598" text-anchor="middle" fill="#ecf4df" class="mono" font-size="17">GIT</text>
  </g>

  <g filter="url(#shadow)">
    <rect x="910" y="88" width="390" height="128" fill="#1e2721"/>
    <rect x="924" y="102" width="362" height="100" fill="#26372c"/>
    <text x="950" y="140" fill="#38f8b4" class="mono" font-size="22">CLICK BLOCKS BELOW</text>
    <text x="950" y="174" fill="#ecf4df" class="small" font-size="19">Open chests, portals and</text>
    <text x="950" y="198" fill="#ecf4df" class="small" font-size="19">missions inside the README.</text>
  </g>
</svg>
